<mxfile host="Electron" modified="2024-07-24T21:11:18.207Z" agent="Mozilla/5.0 (Windows NT 10.0; Win64; x64) AppleWebKit/537.36 (KHTML, like Gecko) draw.io/24.4.6 Chrome/124.0.6367.207 Electron/30.0.6 Safari/537.36" etag="IC0qUlJjoXiGrL_Q7Dl2" version="24.4.6" type="device">
  <diagram name="Page-1" id="aNVVM54OJhHUDK1mDlSA">
    <mxGraphModel dx="1728" dy="997" grid="1" gridSize="10" guides="1" tooltips="1" connect="1" arrows="1" fold="1" page="1" pageScale="1" pageWidth="850" pageHeight="1100" math="0" shadow="0">
      <root>
        <mxCell id="0" />
        <mxCell id="1" parent="0" />
        <mxCell id="mDRNfSBtWmJeWJ4pdr-6-53" style="edgeStyle=orthogonalEdgeStyle;rounded=0;orthogonalLoop=1;jettySize=auto;html=1;exitX=1;exitY=0.5;exitDx=0;exitDy=0;entryX=0;entryY=0.5;entryDx=0;entryDy=0;" edge="1" parent="1" source="mDRNfSBtWmJeWJ4pdr-6-1" target="mDRNfSBtWmJeWJ4pdr-6-5">
          <mxGeometry relative="1" as="geometry" />
        </mxCell>
        <mxCell id="mDRNfSBtWmJeWJ4pdr-6-67" style="edgeStyle=orthogonalEdgeStyle;rounded=0;orthogonalLoop=1;jettySize=auto;html=1;exitX=1;exitY=0.5;exitDx=0;exitDy=0;entryX=0;entryY=0.5;entryDx=0;entryDy=0;" edge="1" parent="1" source="mDRNfSBtWmJeWJ4pdr-6-1" target="mDRNfSBtWmJeWJ4pdr-6-42">
          <mxGeometry relative="1" as="geometry">
            <Array as="points">
              <mxPoint x="360" y="410" />
              <mxPoint x="360" y="410" />
            </Array>
          </mxGeometry>
        </mxCell>
        <mxCell id="mDRNfSBtWmJeWJ4pdr-6-1" value="Player Flies into system" style="rounded=1;whiteSpace=wrap;html=1;" vertex="1" parent="1">
          <mxGeometry x="80" y="390" width="160" height="40" as="geometry" />
        </mxCell>
        <mxCell id="mDRNfSBtWmJeWJ4pdr-6-74" style="edgeStyle=orthogonalEdgeStyle;rounded=0;orthogonalLoop=1;jettySize=auto;html=1;exitX=0.5;exitY=0;exitDx=0;exitDy=0;entryX=0.5;entryY=1;entryDx=0;entryDy=0;" edge="1" parent="1" source="mDRNfSBtWmJeWJ4pdr-6-2" target="mDRNfSBtWmJeWJ4pdr-6-1">
          <mxGeometry relative="1" as="geometry" />
        </mxCell>
        <mxCell id="mDRNfSBtWmJeWJ4pdr-6-2" value="Player flies out of system" style="rounded=1;whiteSpace=wrap;html=1;" vertex="1" parent="1">
          <mxGeometry x="80" y="650" width="160" height="40" as="geometry" />
        </mxCell>
        <mxCell id="mDRNfSBtWmJeWJ4pdr-6-73" style="edgeStyle=orthogonalEdgeStyle;rounded=0;orthogonalLoop=1;jettySize=auto;html=1;exitX=0;exitY=0.5;exitDx=0;exitDy=0;entryX=0.5;entryY=1;entryDx=0;entryDy=0;" edge="1" parent="1" source="mDRNfSBtWmJeWJ4pdr-6-3" target="mDRNfSBtWmJeWJ4pdr-6-2">
          <mxGeometry relative="1" as="geometry" />
        </mxCell>
        <mxCell id="mDRNfSBtWmJeWJ4pdr-6-3" value="Fly to Warp Gate" style="rounded=1;whiteSpace=wrap;html=1;" vertex="1" parent="1">
          <mxGeometry x="305" y="760" width="120" height="60" as="geometry" />
        </mxCell>
        <mxCell id="mDRNfSBtWmJeWJ4pdr-6-72" style="edgeStyle=orthogonalEdgeStyle;rounded=0;orthogonalLoop=1;jettySize=auto;html=1;exitX=0;exitY=0.5;exitDx=0;exitDy=0;entryX=1;entryY=0.5;entryDx=0;entryDy=0;" edge="1" parent="1" source="mDRNfSBtWmJeWJ4pdr-6-4" target="mDRNfSBtWmJeWJ4pdr-6-3">
          <mxGeometry relative="1" as="geometry" />
        </mxCell>
        <mxCell id="mDRNfSBtWmJeWJ4pdr-6-4" value="fulfill requirements&lt;div&gt;for activation&lt;/div&gt;" style="rounded=1;whiteSpace=wrap;html=1;" vertex="1" parent="1">
          <mxGeometry x="530" y="580" width="120" height="60" as="geometry" />
        </mxCell>
        <mxCell id="mDRNfSBtWmJeWJ4pdr-6-58" style="edgeStyle=orthogonalEdgeStyle;rounded=0;orthogonalLoop=1;jettySize=auto;html=1;exitX=1;exitY=0.5;exitDx=0;exitDy=0;entryX=0;entryY=0.5;entryDx=0;entryDy=0;" edge="1" parent="1" source="mDRNfSBtWmJeWJ4pdr-6-5" target="mDRNfSBtWmJeWJ4pdr-6-42">
          <mxGeometry relative="1" as="geometry" />
        </mxCell>
        <mxCell id="mDRNfSBtWmJeWJ4pdr-6-65" style="edgeStyle=orthogonalEdgeStyle;rounded=0;orthogonalLoop=1;jettySize=auto;html=1;exitX=0.5;exitY=1;exitDx=0;exitDy=0;entryX=0.5;entryY=0;entryDx=0;entryDy=0;" edge="1" parent="1" source="mDRNfSBtWmJeWJ4pdr-6-5" target="mDRNfSBtWmJeWJ4pdr-6-60">
          <mxGeometry relative="1" as="geometry" />
        </mxCell>
        <mxCell id="mDRNfSBtWmJeWJ4pdr-6-5" value="Complete optional objectives" style="rounded=1;whiteSpace=wrap;html=1;" vertex="1" parent="1">
          <mxGeometry x="280" y="430" width="160" height="40" as="geometry" />
        </mxCell>
        <mxCell id="mDRNfSBtWmJeWJ4pdr-6-70" style="edgeStyle=orthogonalEdgeStyle;rounded=0;orthogonalLoop=1;jettySize=auto;html=1;exitX=1;exitY=0.5;exitDx=0;exitDy=0;entryX=1;entryY=0.5;entryDx=0;entryDy=0;" edge="1" parent="1" source="mDRNfSBtWmJeWJ4pdr-6-42" target="mDRNfSBtWmJeWJ4pdr-6-49">
          <mxGeometry relative="1" as="geometry" />
        </mxCell>
        <mxCell id="mDRNfSBtWmJeWJ4pdr-6-42" value="progression gates that may be requires to progress" style="swimlane;fontStyle=0;childLayout=stackLayout;horizontal=1;startSize=30;horizontalStack=0;resizeParent=1;resizeParentMax=0;resizeLast=0;collapsible=1;marginBottom=0;whiteSpace=wrap;html=1;" vertex="1" parent="1">
          <mxGeometry x="480" y="395" width="300" height="150" as="geometry">
            <mxRectangle x="600" y="405" width="310" height="30" as="alternateBounds" />
          </mxGeometry>
        </mxCell>
        <mxCell id="mDRNfSBtWmJeWJ4pdr-6-43" value="Defend The Gate" style="text;strokeColor=none;fillColor=none;align=left;verticalAlign=middle;spacingLeft=4;spacingRight=4;overflow=hidden;points=[[0,0.5],[1,0.5]];portConstraint=eastwest;rotatable=0;whiteSpace=wrap;html=1;" vertex="1" parent="mDRNfSBtWmJeWJ4pdr-6-42">
          <mxGeometry y="30" width="300" height="30" as="geometry" />
        </mxCell>
        <mxCell id="mDRNfSBtWmJeWJ4pdr-6-44" value="Multiple signal Interception" style="text;strokeColor=none;fillColor=none;align=left;verticalAlign=middle;spacingLeft=4;spacingRight=4;overflow=hidden;points=[[0,0.5],[1,0.5]];portConstraint=eastwest;rotatable=0;whiteSpace=wrap;html=1;" vertex="1" parent="mDRNfSBtWmJeWJ4pdr-6-42">
          <mxGeometry y="60" width="300" height="30" as="geometry" />
        </mxCell>
        <mxCell id="mDRNfSBtWmJeWJ4pdr-6-45" value="Boss fight" style="text;strokeColor=none;fillColor=none;align=left;verticalAlign=middle;spacingLeft=4;spacingRight=4;overflow=hidden;points=[[0,0.5],[1,0.5]];portConstraint=eastwest;rotatable=0;whiteSpace=wrap;html=1;" vertex="1" parent="mDRNfSBtWmJeWJ4pdr-6-42">
          <mxGeometry y="90" width="300" height="30" as="geometry" />
        </mxCell>
        <mxCell id="mDRNfSBtWmJeWJ4pdr-6-47" value="Assassination" style="text;strokeColor=none;fillColor=none;align=left;verticalAlign=middle;spacingLeft=4;spacingRight=4;overflow=hidden;points=[[0,0.5],[1,0.5]];portConstraint=eastwest;rotatable=0;whiteSpace=wrap;html=1;" vertex="1" parent="mDRNfSBtWmJeWJ4pdr-6-42">
          <mxGeometry y="120" width="300" height="30" as="geometry" />
        </mxCell>
        <mxCell id="mDRNfSBtWmJeWJ4pdr-6-71" style="edgeStyle=orthogonalEdgeStyle;rounded=0;orthogonalLoop=1;jettySize=auto;html=1;exitX=0;exitY=0.5;exitDx=0;exitDy=0;entryX=1;entryY=0.5;entryDx=0;entryDy=0;" edge="1" parent="1" source="mDRNfSBtWmJeWJ4pdr-6-49" target="mDRNfSBtWmJeWJ4pdr-6-4">
          <mxGeometry relative="1" as="geometry" />
        </mxCell>
        <mxCell id="mDRNfSBtWmJeWJ4pdr-6-49" value="minimum 1 minute combat for warp gate chart" style="rounded=1;whiteSpace=wrap;html=1;" vertex="1" parent="1">
          <mxGeometry x="670" y="580" width="120" height="60" as="geometry" />
        </mxCell>
        <mxCell id="mDRNfSBtWmJeWJ4pdr-6-60" value="Options" style="swimlane;fontStyle=0;childLayout=stackLayout;horizontal=1;startSize=30;horizontalStack=0;resizeParent=1;resizeParentMax=0;resizeLast=0;collapsible=1;marginBottom=0;whiteSpace=wrap;html=1;" vertex="1" parent="1">
          <mxGeometry x="275" y="510" width="170" height="230" as="geometry">
            <mxRectangle x="395" y="520" width="80" height="30" as="alternateBounds" />
          </mxGeometry>
        </mxCell>
        <mxCell id="mDRNfSBtWmJeWJ4pdr-6-61" value="Mine for resources" style="text;strokeColor=none;fillColor=none;align=left;verticalAlign=middle;spacingLeft=4;spacingRight=4;overflow=hidden;points=[[0,0.5],[1,0.5]];portConstraint=eastwest;rotatable=0;whiteSpace=wrap;html=1;" vertex="1" parent="mDRNfSBtWmJeWJ4pdr-6-60">
          <mxGeometry y="30" width="170" height="30" as="geometry" />
        </mxCell>
        <mxCell id="mDRNfSBtWmJeWJ4pdr-6-62" value="Salvaging derelicts" style="text;strokeColor=none;fillColor=none;align=left;verticalAlign=middle;spacingLeft=4;spacingRight=4;overflow=hidden;points=[[0,0.5],[1,0.5]];portConstraint=eastwest;rotatable=0;whiteSpace=wrap;html=1;" vertex="1" parent="mDRNfSBtWmJeWJ4pdr-6-60">
          <mxGeometry y="60" width="170" height="30" as="geometry" />
        </mxCell>
        <mxCell id="mDRNfSBtWmJeWJ4pdr-6-63" value="Fight small combat patrols" style="text;strokeColor=none;fillColor=none;align=left;verticalAlign=middle;spacingLeft=4;spacingRight=4;overflow=hidden;points=[[0,0.5],[1,0.5]];portConstraint=eastwest;rotatable=0;whiteSpace=wrap;html=1;" vertex="1" parent="mDRNfSBtWmJeWJ4pdr-6-60">
          <mxGeometry y="90" width="170" height="30" as="geometry" />
        </mxCell>
        <mxCell id="mDRNfSBtWmJeWJ4pdr-6-64" value="trading with alien stations" style="text;strokeColor=none;fillColor=none;align=left;verticalAlign=middle;spacingLeft=4;spacingRight=4;overflow=hidden;points=[[0,0.5],[1,0.5]];portConstraint=eastwest;rotatable=0;whiteSpace=wrap;html=1;" vertex="1" parent="mDRNfSBtWmJeWJ4pdr-6-60">
          <mxGeometry y="120" width="170" height="40" as="geometry" />
        </mxCell>
        <mxCell id="mDRNfSBtWmJeWJ4pdr-6-69" value="Sending new resources back with probes ( unlocks modules and weapons)" style="text;strokeColor=none;fillColor=none;align=left;verticalAlign=middle;spacingLeft=4;spacingRight=4;overflow=hidden;points=[[0,0.5],[1,0.5]];portConstraint=eastwest;rotatable=0;whiteSpace=wrap;html=1;" vertex="1" parent="mDRNfSBtWmJeWJ4pdr-6-60">
          <mxGeometry y="160" width="170" height="70" as="geometry" />
        </mxCell>
      </root>
    </mxGraphModel>
  </diagram>
</mxfile>
